<svg width="92" height="17" viewBox="0 0 92 17" fill="none" xmlns="http://www.w3.org/2000/svg">
<path d="M0.443672 16V0.445312H11.2073V3.43164H4.09602V6.71875H10.6488V9.70508H4.09602V13.0137H11.2288V16H0.443672ZM17.2118 16H13.2587L18.5438 0.445312H23.3993L28.663 16H24.7313L23.6786 12.6699H18.2645L17.2118 16ZM19.1454 9.87695H22.7977L21.036 4.29102H20.9071L19.1454 9.87695ZM28.2866 3.43164V0.445312H41.3705V3.43164H36.644V16H33.0131V3.43164H28.2866ZM48.707 16.2363C45.3984 16.2363 43.3789 13.7227 43.3789 10.2207C43.3789 6.67578 45.4844 4.18359 48.6641 4.18359C51.1562 4.18359 53.0039 5.64453 53.3047 7.85742H51.457C51.1992 6.7832 50.2539 5.81641 48.707 5.81641C46.623 5.81641 45.2266 7.53516 45.2266 10.1562C45.2266 12.8633 46.5801 14.582 48.707 14.582C50.082 14.582 51.1348 13.8516 51.457 12.5625H53.3047C53.0039 14.6465 51.3066 16.2363 48.707 16.2363ZM60.9205 16.2363C57.5474 16.2363 55.4634 13.8516 55.4634 10.2637C55.4634 6.67578 57.5689 4.18359 60.7486 4.18359C63.1978 4.18359 65.7759 5.6875 65.7759 10.0059V10.7793H57.3111C57.397 13.25 58.8365 14.6035 60.9205 14.6035C62.317 14.6035 63.1978 14.002 63.6275 13.2715H65.6041C65.0455 15.0332 63.3267 16.2363 60.9205 16.2363ZM57.3326 9.21094H63.9068C63.9068 7.25586 62.6607 5.81641 60.7486 5.81641C58.7291 5.81641 57.44 7.40625 57.3326 9.21094ZM73.5206 16.2363C70.1476 16.2363 68.0636 13.8516 68.0636 10.2637C68.0636 6.67578 70.1691 4.18359 73.3487 4.18359C75.798 4.18359 78.3761 5.6875 78.3761 10.0059V10.7793H69.9112C69.9972 13.25 71.4366 14.6035 73.5206 14.6035C74.9171 14.6035 75.798 14.002 76.2277 13.2715H78.2042C77.6456 15.0332 75.9269 16.2363 73.5206 16.2363ZM69.9327 9.21094H76.507C76.507 7.25586 75.2609 5.81641 73.3487 5.81641C71.3292 5.81641 70.0402 7.40625 69.9327 9.21094ZM85.6266 16.2363C82.7262 16.2363 80.6637 13.8945 80.6637 10.1992C80.6637 6.50391 82.7262 4.18359 85.6481 4.18359C87.904 4.18359 88.6345 5.55859 89.0212 6.18164H89.1501V0.445312H91.0192V16H89.2145V14.2168H89.0212C88.613 14.8613 87.861 16.2363 85.6266 16.2363ZM85.8845 14.582C88.0114 14.582 89.2145 12.7773 89.2145 10.1562C89.2145 7.57812 88.0544 5.83789 85.8845 5.83789C83.6501 5.83789 82.5329 7.72852 82.5329 10.1562C82.5329 12.6484 83.6716 14.582 85.8845 14.582Z" fill="white"/>
</svg>
