<svg width="49" height="49" viewBox="0 0 49 49" fill="none" xmlns="http://www.w3.org/2000/svg">
<path d="M37.5416 42.8307C34.3373 39.252 29.6816 37 24.5 37C19.3184 37 14.6623 39.252 11.458 42.8307M24.5 47C12.0736 47 2 36.9264 2 24.5C2 12.0736 12.0736 2 24.5 2C36.9264 2 47 12.0736 47 24.5C47 36.9264 36.9264 47 24.5 47ZM24.5 29.5C20.3579 29.5 17 26.1421 17 22C17 17.8579 20.3579 14.5 24.5 14.5C28.6421 14.5 32 17.8579 32 22C32 26.1421 28.6421 29.5 24.5 29.5Z" stroke="white" stroke-width="3" stroke-linecap="round" stroke-linejoin="round"/>
</svg>
